<?xml version="1.0" encoding="UTF-8"?>
<svg version="1.1" xmlns="http://www.w3.org/2000/svg" width="404" height="414">
<path d="M0 0 C1.83682391 -0.00271766 3.67364673 -0.0062829 5.51046753 -0.01062012 C10.45061431 -0.01965498 15.39067656 -0.01623685 20.33082461 -0.00986195 C25.53183623 -0.00475464 30.73284121 -0.00950649 35.93385315 -0.01263428 C44.66473676 -0.01626057 53.3955864 -0.01151039 62.12646484 -0.00195312 C72.17961109 0.0089254 82.23267615 0.00540478 92.28582042 -0.00560594 C100.95980468 -0.01472114 109.63376469 -0.01594339 118.30775219 -0.0107286 C123.46963616 -0.00763163 128.63148214 -0.00713624 133.79336357 -0.01380157 C138.65019729 -0.01963627 143.50692774 -0.01546779 148.36375046 -0.00401306 C150.13204719 -0.00139873 151.90035282 -0.00207528 153.66864586 -0.00653839 C183.01559885 -0.07370325 183.01559885 -0.07370325 195.85375977 4.88378906 C196.88617798 5.26422363 196.88617798 5.26422363 197.93945312 5.65234375 C204.77278161 8.29505875 211.29508601 11.77348272 217.10375977 16.25878906 C217.10375977 16.91878906 217.10375977 17.57878906 217.10375977 18.25878906 C217.72250977 18.56816406 218.34125977 18.87753906 218.97875977 19.19628906 C220.35375977 19.88378906 221.72875977 20.57128906 223.10375977 21.25878906 C223.10375977 21.91878906 223.10375977 22.57878906 223.10375977 23.25878906 C223.74313477 23.50628906 224.38250977 23.75378906 225.04125977 24.00878906 C227.64806077 25.58866846 227.39571054 26.42659217 228.10375977 29.25878906 C228.70446289 29.54367188 229.30516602 29.82855469 229.92407227 30.12207031 C237.89721547 34.28010736 241.73104189 46.19208384 244.44260204 54.14358878 C248.45747668 66.98812439 248.54300206 80.2947104 248.5078125 93.61376953 C248.5135304 95.59527976 248.52050008 97.5767867 248.52861023 99.55828857 C248.54639998 104.88901449 248.54540022 110.21957454 248.53966784 115.5503211 C248.53655531 120.02298584 248.54269121 124.49561965 248.54870659 128.96827996 C248.56270365 139.53080058 248.56123083 150.09324023 248.54980469 160.65576172 C248.5383282 171.50363872 248.55240244 182.35126835 248.57920116 193.19911277 C248.60144756 202.55935289 248.60797549 211.91951586 248.60212475 221.27978051 C248.5987753 226.84976708 248.60103508 232.41959518 248.61837578 237.98955917 C248.63398622 243.23144368 248.62973508 248.47296522 248.61107063 253.71483612 C248.60742342 255.6225872 248.61037802 257.53036604 248.62095642 259.43809128 C248.75751144 286.13214484 242.58776819 307.87756927 223.81860352 327.53613281 C220.44598576 330.91845594 217.1420634 333.71923729 213.10375977 336.25878906 C212.06477539 336.91621094 211.02579102 337.57363281 209.95532227 338.25097656 C192.65756624 348.83330475 174.81881333 350.56181872 154.97485352 350.54931641 C153.06466919 350.55531129 151.15448727 350.56211903 149.24430847 350.56967163 C144.08473672 350.58724506 138.92523143 350.59202345 133.76563263 350.5933032 C130.5317975 350.59473074 127.29797894 350.59901178 124.06414795 350.60429764 C112.75263407 350.62277212 101.44116714 350.63097184 90.12963867 350.62939453 C79.63464419 350.62819514 69.13985602 350.6492645 58.64491367 350.68088186 C49.59559202 350.70715915 40.54633725 350.71775699 31.49697781 350.71648371 C26.1096361 350.71597726 20.7224778 350.72148263 15.33517456 350.74283981 C10.25916174 350.76241529 5.1835036 350.76221677 0.10747719 350.74780655 C-1.73857844 350.74574077 -3.58465742 350.75028323 -5.4306736 350.76252747 C-29.33270576 350.9105901 -48.90024836 346.49086924 -67.89624023 331.25878906 C-68.68772461 330.63230469 -69.47920898 330.00582031 -70.29467773 329.36035156 C-76.24172191 324.38756719 -80.65248156 318.72235997 -84.89624023 312.25878906 C-85.36932617 311.54078125 -85.84241211 310.82277344 -86.32983398 310.08300781 C-93.04144825 298.98061786 -96.05443505 286.28743219 -96.029953 273.43559265 C-96.03221856 272.55885244 -96.03448412 271.68211222 -96.03681833 270.77880412 C-96.04313766 267.84723289 -96.04233029 264.91570814 -96.04150391 261.98413086 C-96.04449669 259.87964824 -96.04789949 257.77516617 -96.05168152 255.67068481 C-96.06051365 249.95780516 -96.0628593 244.24494048 -96.0634973 238.53205466 C-96.06420826 234.96164847 -96.06634344 231.39124608 -96.06899452 227.82084084 C-96.07824536 215.36143375 -96.08232974 202.90203736 -96.08154297 190.44262695 C-96.08094225 178.83425255 -96.09149357 167.22592463 -96.10728663 155.617562 C-96.12036839 145.6462554 -96.1257266 135.67496398 -96.12508756 125.70364887 C-96.12483276 119.75044643 -96.12767416 113.7972853 -96.13826561 107.84409142 C-96.14795724 102.24380441 -96.14801841 96.64359813 -96.14074898 91.04330826 C-96.13970446 88.99107177 -96.14205811 86.93883023 -96.14810944 84.8866024 C-96.15585117 82.0786194 -96.1511701 79.27091363 -96.14347839 76.4629364 C-96.14862196 75.65669081 -96.15376552 74.85044522 -96.15906495 74.01976794 C-96.10926666 65.75596745 -94.30425034 58.78481138 -90.89624023 51.25878906 C-90.62811523 50.33066406 -90.35999023 49.40253906 -90.08374023 48.44628906 C-88.30778769 43.67925854 -85.60435464 39.54838629 -82.89624023 35.25878906 C-82.21561523 34.16566406 -81.53499023 33.07253906 -80.83374023 31.94628906 C-77.46621083 27.27519988 -73.38942824 23.80604275 -68.89624023 20.25878906 C-68.21174805 19.54916016 -68.21174805 19.54916016 -67.51342773 18.82519531 C-64.37442223 15.78475762 -60.56292566 13.60795362 -56.89624023 11.25878906 C-55.86499023 10.57816406 -54.83374023 9.89753906 -53.77124023 9.19628906 C-37.2400636 0.11364259 -18.33380753 -0.04621562 0 0 Z " fill="#5D8DEC" transform="translate(126.896240234375,36.7412109375)"/>
<path d="M0 0 C1.09505859 0.00902344 2.19011719 0.01804687 3.31835938 0.02734375 C5.98331354 0.05061846 8.64778134 0.08330865 11.3125 0.125 C11.3125 0.785 11.3125 1.445 11.3125 2.125 C12.116875 2.063125 12.92125 2.00125 13.75 1.9375 C18.34618532 2.17940449 22.0139025 3.55845572 26.3125 5.125 C27.40304688 5.48851563 28.49359375 5.85203125 29.6171875 6.2265625 C39.56770938 9.60146598 49.16406563 13.13557335 56.3125 21.125 C57.96114545 22.48055293 59.62253995 23.82131653 61.3125 25.125 C59.47449965 29.15838966 57.01572815 32.76128279 54.5625 36.4375 C54.11729004 37.10595947 53.67208008 37.77441895 53.21337891 38.46313477 C50.18108071 42.96318848 47.0066165 47.13924273 43.3125 51.125 C39.19938476 50.56778653 36.74137665 49.26102968 33.375 46.875 C27.02877637 42.67019336 20.53052785 40.41158692 13.3125 38.125 C13.3125 37.465 13.3125 36.805 13.3125 36.125 C8.18966234 35.13856362 3.13501071 34.81532947 -2.0625 34.5625 C-2.89394531 34.51931641 -3.72539062 34.47613281 -4.58203125 34.43164062 C-6.61703228 34.32638195 -8.65224703 34.22526928 -10.6875 34.125 C-10.6875 34.785 -10.6875 35.445 -10.6875 36.125 C-11.30238281 36.29515625 -11.91726562 36.4653125 -12.55078125 36.640625 C-13.35902344 36.88296875 -14.16726562 37.1253125 -15 37.375 C-16.20076172 37.72304687 -16.20076172 37.72304687 -17.42578125 38.078125 C-20.21792637 39.37051687 -21.20849049 40.43208646 -22.6875 43.125 C-23.27253114 45.99265541 -23.27253114 45.99265541 -23.25 49.0625 C-23.29253906 50.08214844 -23.33507812 51.10179687 -23.37890625 52.15234375 C-22.5881476 55.5521592 -21.3435563 56.96189206 -18.55297852 59.02416992 C-15.17725612 61.01620399 -11.60792966 62.16848713 -7.875 63.3125 C-7.11896484 63.55935547 -6.36292969 63.80621094 -5.58398438 64.06054688 C-0.34733507 65.7346675 4.92932354 67.0173801 10.3125 68.125 C10.3125 68.785 10.3125 69.445 10.3125 70.125 C11.446875 70.16625 12.58125 70.2075 13.75 70.25 C21.61526951 71.12115327 28.99347112 74.25951381 36.3125 77.125 C37.26898438 77.49496094 38.22546875 77.86492187 39.2109375 78.24609375 C48.98682444 82.56456808 58.27584212 90.74761362 62.48828125 100.66015625 C66.71723164 113.30692259 66.89121185 127.91300112 61.25 140.1875 C53.63157175 153.94483565 42.68675193 162.9206976 27.50439453 167.31225586 C0.30759504 174.23730906 -26.67460322 170.96907278 -50.94042969 157.16601562 C-57.5970866 153.199556 -64.5303033 148.80620899 -68.6875 142.125 C-68.87946107 134.44655701 -60.27062432 126.64308169 -55.6875 121.125 C-55.20796875 120.53460938 -54.7284375 119.94421875 -54.234375 119.3359375 C-53 117.9375 -53 117.9375 -50.6875 116.125 C-46.77664353 116.4335861 -44.90117114 117.49932425 -42.1875 120.25 C-36.94898245 125.03725948 -31.06916306 128.09604831 -24.6875 131.125 C-23.61628906 131.63675781 -22.54507813 132.14851562 -21.44140625 132.67578125 C-10.20495819 137.37417826 3.93367681 138.7765459 15.4375 134.125 C16.73109796 133.46208859 18.02336513 132.79654933 19.3125 132.125 C19.9725 132.125 20.6325 132.125 21.3125 132.125 C21.6425 131.135 21.9725 130.145 22.3125 129.125 C22.9725 128.795 23.6325 128.465 24.3125 128.125 C25.43799663 124.02920775 25.75589553 120.29869405 24.25 116.3125 C20.00968134 111.52504345 14.73723479 109.30513292 8.75 107.4375 C8.10353516 107.22544922 7.45707031 107.01339844 6.79101562 106.79492188 C3.32710178 105.67787133 -0.10195798 104.7512655 -3.6875 104.125 C-3.6875 103.465 -3.6875 102.805 -3.6875 102.125 C-5.110625 101.939375 -5.110625 101.939375 -6.5625 101.75 C-24.44029012 99.11986786 -43.74104458 94.71373027 -55.6875 80.125 C-59.6875 74.33463173 -59.6875 74.33463173 -59.6875 71.125 C-60.3475 71.125 -61.0075 71.125 -61.6875 71.125 C-64.37073103 64.45077052 -65.23367775 58.48315607 -65.1875 51.3125 C-65.18540527 50.34997314 -65.18331055 49.38744629 -65.18115234 48.39575195 C-65.01514108 40.88025728 -63.92217469 34.52834143 -59.6875 28.125 C-59.0275 27.795 -58.3675 27.465 -57.6875 27.125 C-57.55472656 26.51398438 -57.42195312 25.90296875 -57.28515625 25.2734375 C-56.12128287 21.08957895 -51.9625451 18.75298246 -48.6875 16.125 C-47.99527344 15.55910156 -47.30304688 14.99320313 -46.58984375 14.41015625 C-42.77034168 11.40018256 -39.48835024 9.32521256 -34.6875 8.125 C-34.6875 7.465 -34.6875 6.805 -34.6875 6.125 C-33.08816393 5.48774037 -31.48261868 4.86606646 -29.875 4.25 C-28.98167969 3.90195313 -28.08835938 3.55390625 -27.16796875 3.1953125 C-18.12302528 0.41381473 -9.41883741 -0.14996312 0 0 Z " fill="#FBFCFD" transform="translate(202.6875,84.875)"/>
<path d="M0 0 C2.96875 -0.36328125 2.96875 -0.36328125 6.5 -0.3125 C8.24796875 -0.30669922 8.24796875 -0.30669922 10.03125 -0.30078125 C13 0 13 0 15 2 C15.49969036 4.36269778 15.92624659 6.74112929 16.3125 9.125 C17.6173647 16.37290679 19.606983 21.71643516 24.9375 26.875 C27.53341764 28.29095508 30.16944827 29.16370062 33 30 C33.05399736 31.45792884 33.09279177 32.91642712 33.125 34.375 C33.14820313 35.18710937 33.17140625 35.99921875 33.1953125 36.8359375 C33 39 33 39 31 41 C29.906875 41.2475 28.81375 41.495 27.6875 41.75 C23.35904724 43.21727212 21.34175545 45.20360001 19 49 C17.80209889 52.04339065 17.00939179 55.13477664 16.25 58.3125 C14.07945026 66.92054974 14.07945026 66.92054974 13 68 C10.8579034 68.15154969 8.70976538 68.22177745 6.5625 68.25 C5.38816406 68.27578125 4.21382812 68.3015625 3.00390625 68.328125 C2.01261719 68.21984375 1.02132812 68.1115625 0 68 C-2.14373326 64.78440011 -2.20396517 63.88148388 -1.54296875 60.2265625 C0.94808395 50.0114543 4.2626491 42.30749807 12 35 C11.55269531 34.50113281 11.10539062 34.00226563 10.64453125 33.48828125 C6.02650604 28.00376091 3.40747376 22.67254449 1.04296875 15.91796875 C0.09661128 13.07309068 0.09661128 13.07309068 -1.12109375 10.8046875 C-2.42210353 8.13328076 -2.2487711 5.92306041 -2 3 C-1.34 2.01 -0.68 1.02 0 0 Z " fill="#F7F9FD" transform="translate(250,268)"/>
<path d="M0 0 C2.96875 -0.36328125 2.96875 -0.36328125 6.5 -0.3125 C8.24796875 -0.30669922 8.24796875 -0.30669922 10.03125 -0.30078125 C13 0 13 0 15 2 C15.50453283 7.54294976 14.40395114 11.79602159 12.4375 16.875 C12.03966309 17.92010742 12.03966309 17.92010742 11.63378906 18.98632812 C9.36645917 24.64806944 6.52396778 29.80250412 2 34 C1.34 34 0.68 34 0 34 C0 34.66 0 35.32 0 36 C0.59941406 36.27585937 1.19882813 36.55171875 1.81640625 36.8359375 C8.48404328 40.39042021 10.76320779 46.27623664 12.9375 53.0625 C13.16107178 53.74715332 13.38464355 54.43180664 13.61499023 55.13720703 C14.89013639 59.43751676 15.16904276 62.66067179 14 67 C13 68 13 68 10.05859375 68.09765625 C8.86363281 68.08605469 7.66867188 68.07445312 6.4375 68.0625 C5.23996094 68.05347656 4.04242188 68.04445313 2.80859375 68.03515625 C1.41833984 68.01775391 1.41833984 68.01775391 0 68 C-1.11905209 64.7307032 -2.10090328 61.56034998 -2.875 58.1875 C-3.23623685 56.78804167 -3.61198954 55.39227281 -4 54 C-4.31130859 52.86111328 -4.31130859 52.86111328 -4.62890625 51.69921875 C-6.49830637 46.32582226 -8.7305135 44.1759875 -13.75 41.4375 C-15.48738757 40.59836909 -17.23374968 39.77654109 -19 39 C-19 36.03 -19 33.06 -19 30 C-18.33613281 29.74347656 -17.67226562 29.48695313 -16.98828125 29.22265625 C-11.18767015 26.70764677 -7.65352947 24.44630352 -4.88671875 18.6796875 C-3.4932679 14.46864219 -2.93028974 10.2200563 -2.45703125 5.8203125 C-2 3 -2 3 0 0 Z " fill="#F8F9FD" transform="translate(141,268)"/>
<path d="M0 0 C7.56340994 7.56340994 6.51470464 27.05902154 6.54211426 37.22344971 C6.53434255 39.04748713 6.52615023 40.8715228 6.51757812 42.69555664 C6.52301671 44.67751068 6.53014897 46.65946066 6.53881836 48.6414032 C6.55684727 53.95961022 6.55007016 59.27750226 6.53730202 64.59571385 C6.52706855 70.20016438 6.53659594 75.80459061 6.54284668 81.40904236 C6.55009269 90.81384042 6.54061523 100.2185122 6.52148438 109.62329102 C6.49971528 120.44908675 6.50677977 131.27458105 6.52879 142.10036951 C6.54702373 151.4479398 6.54946375 160.7954201 6.53903532 170.14300245 C6.53284481 175.70287375 6.53184098 181.26260403 6.54518127 186.8224659 C6.5568563 192.05209441 6.54850449 197.2813395 6.52560425 202.5109272 C6.52037898 204.41383736 6.52172268 206.3167806 6.53065491 208.21967697 C6.64419268 234.89564851 0.47114968 256.63224828 -18.28515625 276.27734375 C-21.657774 279.65966688 -24.96169636 282.46044823 -29 285 C-30.03898437 285.65742188 -31.07796875 286.31484375 -32.1484375 286.9921875 C-49.44619352 297.57451569 -67.28494643 299.30302965 -87.12890625 299.29052734 C-89.03909057 299.29652223 -90.94927249 299.30332996 -92.85945129 299.31088257 C-98.01902305 299.32845599 -103.17852834 299.33323439 -108.33812714 299.33451414 C-111.57196227 299.33594168 -114.80578083 299.34022272 -118.03961182 299.34550858 C-129.3511257 299.36398306 -140.66259263 299.37218278 -151.97412109 299.37060547 C-162.46911558 299.36940608 -172.96390375 299.39047544 -183.45884609 299.4220928 C-192.50816775 299.44837009 -201.55742251 299.45896793 -210.60678196 299.45769465 C-215.99412367 299.4571882 -221.38128197 299.46269357 -226.76858521 299.48405075 C-231.84459802 299.50362623 -236.92025616 299.50342771 -241.99628258 299.48901749 C-243.84233821 299.48695171 -245.68841719 299.49149416 -247.53443336 299.5037384 C-268.97043214 299.63652504 -288.69673288 296.59542416 -306 283 C-302.76138705 283 -300.90259811 283.6250851 -298 285 C-297.67 285.66 -297.34 286.32 -297 287 C-295.09034453 287.84024973 -295.09034453 287.84024973 -292.8125 288.5 C-292.00554687 288.75394531 -291.19859375 289.00789063 -290.3671875 289.26953125 C-289.58601563 289.51058594 -288.80484375 289.75164062 -288 290 C-286 290.66666667 -284 291.33333333 -282 292 C-282 292.66 -282 293.32 -282 294 C-268.71571531 296.31486159 -255.92356625 297.43896177 -242.45019531 297.38818359 C-240.59145299 297.39226365 -238.7327131 297.39761346 -236.87397766 297.40411377 C-231.89277941 297.41761913 -226.91177059 297.41256029 -221.93056965 297.40297651 C-216.68106447 297.39529626 -211.4315738 297.40244803 -206.18206787 297.40713501 C-197.37672051 297.41256657 -188.57144907 297.40546769 -179.76611328 297.39111328 C-169.62535193 297.37477149 -159.48477143 297.38009695 -149.34401441 297.3965925 C-140.58842854 297.41025761 -131.83289674 297.41210318 -123.07730365 297.40427649 C-117.86910463 297.39963009 -112.66099032 297.39889108 -107.45279694 297.40888596 C-102.55728981 297.41762774 -97.66201349 297.41140372 -92.76653099 297.39420319 C-90.98329995 297.39027739 -89.20004907 297.39130421 -87.41682625 297.39799118 C-73.3098121 297.44596709 -59.56482544 296.37188012 -46.3125 291.0625 C-45.33893555 290.70381836 -45.33893555 290.70381836 -44.34570312 290.33789062 C-40.29384299 288.77567802 -37.28741615 286.80480756 -34 284 C-32.85205469 283.32144758 -31.68706323 282.67003 -30.5 282.0625 C-27.09306521 280.18204898 -24.6866031 277.82800327 -22 275 C-21.20722656 274.38382812 -20.41445313 273.76765625 -19.59765625 273.1328125 C-6.31150796 262.22418548 0.34665879 245.58145431 3 229 C3.09674734 226.12511593 3.14353484 223.27459684 3.14044189 220.39990234 C3.14341302 219.53500592 3.14638414 218.6701095 3.1494453 217.7790041 C3.15811562 214.88130541 3.15963916 211.98364812 3.16113281 209.0859375 C3.16576229 207.00779635 3.17078712 204.92965604 3.17617798 202.85151672 C3.18929442 197.20442613 3.19574586 191.55734743 3.20018864 185.91024399 C3.20312153 182.37917674 3.20722683 178.84811273 3.21169281 175.31704712 C3.22536785 164.26082531 3.23503359 153.20461091 3.2388947 142.14838123 C3.24337087 129.40194036 3.26089831 116.65560696 3.2898953 103.90919876 C3.31154794 94.04740303 3.32160095 84.18563745 3.32293582 74.32381821 C3.32398159 68.43863542 3.32984044 62.55355367 3.34775543 56.668396 C3.3642973 51.12635736 3.36636198 45.58449502 3.35761642 40.04244041 C3.35684923 38.01606968 3.36114655 35.98968923 3.37107468 33.96334267 C3.41653358 24.10108878 3.32012523 14.95678706 0.64371872 5.40022278 C0 3 0 3 0 0 Z " fill="#2C374F" transform="translate(369,88)"/>
<path d="M0 0 C1.21236328 0.02707031 1.21236328 0.02707031 2.44921875 0.0546875 C3.37154297 0.08949219 3.37154297 0.08949219 4.3125 0.125 C4.3125 0.785 4.3125 1.445 4.3125 2.125 C5.09625 2.393125 5.88 2.66125 6.6875 2.9375 C9.3125 4.125 9.3125 4.125 11.3125 7.125 C12.01601326 11.95142815 12.04737541 15.9086545 9.5 20.125 C5.18772351 24.06765279 2.48059053 24.61043347 -3.171875 24.51953125 C-7.2389375 23.88168449 -8.91987372 22.1055206 -11.6875 19.125 C-13.43073958 15.63852084 -13.26923047 11.92862233 -12.6875 8.125 C-9.86254891 2.94410515 -5.93549401 -0.1720433 0 0 Z " fill="#F6F8FD" transform="translate(202.6875,288.875)"/>
<path d="M0 0 C5.64152791 1.62977473 5.64152791 1.62977473 7.4296875 3.4765625 C9.30946829 5.30023043 10.81805962 5.80856724 13.3125 6.5625 C14.10140625 6.80742187 14.8903125 7.05234375 15.703125 7.3046875 C16.84007812 7.64886719 16.84007812 7.64886719 18 8 C20 8.66666667 22 9.33333333 24 10 C24 10.66 24 11.32 24 12 C37.45576154 14.35093662 50.43133043 15.44568843 64.07910156 15.43237305 C65.99336364 15.4414204 67.90761999 15.45175472 69.8218689 15.46325684 C74.94863613 15.49050438 80.07529253 15.50006678 85.20212269 15.50611091 C90.58594347 15.51557981 95.96968414 15.54178908 101.35345459 15.56611633 C111.51715501 15.60955313 121.68083968 15.63823953 131.84460425 15.66143972 C143.4289331 15.68861471 155.01318043 15.73251793 166.59745073 15.77772844 C190.3982561 15.87024734 214.19908703 15.94207696 238 16 C238 16.33 238 16.66 238 17 C212.65984156 17.09372882 187.31970937 17.16411849 161.97941208 17.20724869 C150.2116387 17.22781324 138.44397347 17.25581619 126.67626953 17.30175781 C116.41126625 17.34181349 106.14634134 17.36747711 95.88126206 17.37635398 C90.45347522 17.3815372 85.02591247 17.39359023 79.59819794 17.42292023 C74.47312914 17.45038633 69.34837341 17.45838304 64.22323799 17.45243073 C62.35782981 17.45351719 60.49240943 17.46128299 58.62706566 17.4768219 C37.34343692 17.64518986 17.05975462 14.81027755 0 1 C0 0.67 0 0.34 0 0 Z " fill="#222434" transform="translate(63,370)"/>
<path d="M0 0 C5.64152791 1.62977473 5.64152791 1.62977473 7.4296875 3.4765625 C9.30946829 5.30023043 10.81805962 5.80856724 13.3125 6.5625 C14.10140625 6.80742187 14.8903125 7.05234375 15.703125 7.3046875 C16.84007812 7.64886719 16.84007812 7.64886719 18 8 C20 8.66666667 22 9.33333333 24 10 C24 10.66 24 11.32 24 12 C38.85 13.98 38.85 13.98 54 16 C54 16.33 54 16.66 54 17 C34.53718707 18.27857895 15.29251154 13.3796522 0 1 C0 0.67 0 0.34 0 0 Z " fill="#222640" transform="translate(63,370)"/>
<path d="M0 0 C0.33 0 0.66 0 1 0 C1.95974255 12.82322687 -1.60889387 25.86064261 -8 37 C-9.65234375 38.796875 -9.65234375 38.796875 -11 40 C-10.59205271 36.73642165 -9.67286243 34.25922791 -8.12109375 31.40625 C-5.83369035 26.91155881 -4.5299819 22.37775706 -3.3125 17.5 C-3.10044922 16.69691406 -2.88839844 15.89382813 -2.66992188 15.06640625 C-1.38188575 10.05241072 -0.53730205 5.14865264 0 0 Z " fill="#222740" transform="translate(373,309)"/>
<path d="M0 0 C1 3 1 3 0 5.1875 C-8.09275834 16.56794142 -8.09275834 16.56794142 -14 18 C-12.43068387 14.14804223 -9.94959682 11.88256053 -7 9 C-3.07976236 4.79649668 -3.07976236 4.79649668 0 0 Z " fill="#262E56" transform="translate(361,347)"/>
<path d="M0 0 C2.12689802 2.12689802 2.67868001 3.42630929 3.69140625 6.2109375 C4.14870117 7.46003906 4.14870117 7.46003906 4.61523438 8.734375 C4.92783203 9.60578125 5.24042969 10.4771875 5.5625 11.375 C5.87896484 12.23867188 6.19542969 13.10234375 6.52148438 13.9921875 C7.84697078 17.63938577 9.11481052 21.21768037 10 25 C5.72264403 21.50372642 4.43779937 17.57200933 2.75 12.5 C2.481875 11.74074219 2.21375 10.98148437 1.9375 10.19921875 C0.66604366 6.49512912 0 4.00147834 0 0 Z " fill="#3D53A3" transform="translate(32,321)"/>
<path d="M0 0 C5.64152791 1.62977473 5.64152791 1.62977473 7.4296875 3.4765625 C9.30946829 5.30023043 10.81805962 5.80856724 13.3125 6.5625 C14.10140625 6.80742187 14.8903125 7.05234375 15.703125 7.3046875 C16.84007812 7.64886719 16.84007812 7.64886719 18 8 C20 8.66666667 22 9.33333333 24 10 C18.46529162 12.0162152 13.13163059 9.21236115 8 7 C5.11390291 5.23138563 2.44985074 3.34176909 0 1 C0 0.67 0 0.34 0 0 Z " fill="#333F85" transform="translate(63,370)"/>
<path d="M0 0 C7.11484687 0.3856646 13.35441866 1.39099399 20 4 C20 4.33 20 4.66 20 5 C5.88068182 3.92045455 5.88068182 3.92045455 0 0 Z " fill="#5688AD" transform="translate(303,38)"/>
<path d="M0 0 C0.66 0.33 1.32 0.66 2 1 C-2.29 5.29 -6.58 9.58 -11 14 C-11 9.40845608 -8.09282279 7.18698368 -5 4 C-3.3719908 2.61973133 -1.71956118 1.26438322 0 0 Z " fill="#68A9DF" transform="translate(61,54)"/>
<path d="M0 0 C0.66 0.33 1.32 0.66 2 1 C-1.42388092 4.82669043 -4.00724943 6.72278474 -9 8 C-9 7.34 -9 6.68 -9 6 C-7.03125 4.4921875 -7.03125 4.4921875 -4.5 2.875 C-3.6646875 2.33617187 -2.829375 1.79734375 -1.96875 1.2421875 C-1.3190625 0.83226562 -0.669375 0.42234375 0 0 Z " fill="#272D50" transform="translate(335,372)"/>
<path d="M0 0 C0 0.99 0 1.98 0 3 C-3 5.1875 -3 5.1875 -6 7 C-6 6.01 -6 5.02 -6 4 C-3 1.8125 -3 1.8125 0 0 Z " fill="#2B3363" transform="translate(354,358)"/>
</svg>
